<svg viewBox="0 0 167.5 167.5" xmlns="http://www.w3.org/2000/svg">
    <path fill="#1DB954" d="M83.7,0C37.5,0,0,37.5,0,83.7s37.5,83.7,83.7,83.7s83.7-37.5,83.7-83.7S130,0,83.7,0z M122.1,120.8 c-1.5,2.4-4.5,3.2-6.9,1.7c-19.1-11.7-43.2-14.3-71.5-7.8c-2.7,0.6-5.4-1-6.1-3.7c-0.6-2.7,1-5.4,3.7-6.1 c30.9-7,57.7-4.1,79.1,9C122.7,115.4,123.5,118.4,122.1,120.8z M132.3,98c-1.9,3-5.8,4-8.8,2.1c-21.9-13.5-55.3-17.4-81.2-9.5 c-3.3,1-6.8-0.8-7.9-4.1c-1-3.3,0.8-6.8,4.1-7.9c30-9.1,67-4.7,92,10.6C133.7,91.1,134.6,95,132.3,98z M133.3,74.5 c-26.2-15.6-69.5-17-94.7-9.4c-4,1.2-8.2-1.1-9.4-5.1c-1.2-4,1.1-8.2,5.1-9.4c30.1-9.1,78.1-7.4,109,10.9 c3.6,2.1,4.8,6.8,2.7,10.4C134,75.1,129.3,76.3,133.3,74.5z"/>
</svg>
